<svg width="32" height="32" viewBox="0 0 32 32" xmlns="http://www.w3.org/2000/svg">
  <!-- Background circle -->
  <circle cx="16" cy="16" r="15" fill="#4A90E2" stroke="#2E5C8A" stroke-width="1"/>
  
  <!-- Sun rays -->
  <g fill="#FFD700" opacity="0.9">
    <rect x="15" y="6" width="2" height="3" rx="1"/>
    <rect x="15" y="23" width="2" height="3" rx="1"/>
    <rect x="6" y="15" width="3" height="2" rx="1"/>
    <rect x="23" y="15" width="3" height="2" rx="1"/>
    <rect x="8" y="8" width="2" height="2" rx="1" transform="rotate(45 9 9)"/>
    <rect x="22" y="22" width="2" height="2" rx="1" transform="rotate(45 23 23)"/>
    <rect x="22" y="8" width="2" height="2" rx="1" transform="rotate(-45 23 9)"/>
    <rect x="8" y="22" width="2" height="2" rx="1" transform="rotate(-45 9 23)"/>
  </g>
  
  <!-- Sun center -->
  <circle cx="16" cy="16" r="4" fill="#FFD700"/>
  
  <!-- Cloud -->
  <g fill="#FFFFFF" opacity="0.9">
    <ellipse cx="20" cy="20" rx="3" ry="2"/>
    <ellipse cx="17" cy="22" rx="2" ry="1.5"/>
    <ellipse cx="23" cy="22" rx="2" ry="1.5"/>
  </g>
</svg>
